<svg width="500" height="500" viewBox="0 0 500 500" fill="none" xmlns="http://www.w3.org/2000/svg">
<path d="M145.157 371.379C153.251 371.379 158.957 373.634 162.274 378.146C165.724 382.79 167.449 387.169 167.449 391.282C167.449 396.324 165.458 400.836 161.478 404.816C157.497 408.93 155.507 411.716 155.507 413.176C155.507 415.299 156.701 416.891 159.089 417.952C161.61 419.014 164.065 419.545 166.453 419.545C176.272 419.545 184.764 411.583 191.93 395.661C196.706 385.046 200.753 371.113 204.071 353.864L232.333 205.783H189.342L192.726 187.87H236.513C241.422 163.986 249.45 142.889 260.596 124.578C279.172 94.0595 303.123 78.8004 332.447 78.8004C345.185 78.8004 355.667 82.2503 363.894 89.1501C372.253 96.0499 376.433 104.144 376.433 113.432C376.433 122.057 374.111 128.559 369.467 132.937C364.823 137.183 359.25 139.306 352.748 139.306C345.981 139.306 340.541 137.382 336.428 133.534C332.447 129.686 330.457 124.91 330.457 119.204C330.457 114.427 332.381 109.849 336.229 105.471C340.209 100.959 342.199 98.1729 342.199 97.1114C342.199 94.723 341.005 93.1307 338.617 92.3346C336.229 91.5385 334.039 91.1404 332.049 91.1404C320.903 91.1404 313.008 97.3768 308.364 109.849C303.72 122.19 297.749 148.196 290.451 187.87H338.418L334.636 205.783H287.465L276.121 268.479C266.434 321.952 253.431 361.759 237.11 387.898C218.932 416.825 195.446 431.288 166.652 431.288C153.384 431.288 142.636 427.97 134.409 421.336C126.05 414.702 121.87 405.944 121.87 395.064C121.87 388.695 123.927 383.122 128.04 378.345C132.153 373.701 137.859 371.379 145.157 371.379Z" fill="black"/>
</svg>
